<?xml version="1.0" standalone="no"?><!DOCTYPE svg PUBLIC "-//W3C//DTD SVG 1.1//EN" "http://www.w3.org/Graphics/SVG/1.1/DTD/svg11.dtd"><svg t="1543393390412" class="icon" style="" viewBox="0 0 1083 1024" version="1.1" xmlns="http://www.w3.org/2000/svg" p-id="4100" xmlns:xlink="http://www.w3.org/1999/xlink" width="52.880859375" height="50"><defs><style type="text/css"></style></defs><path d="M474.898551 430.376812m-311.652174 0a311.652174 311.652174 0 1 0 623.304348 0 311.652174 311.652174 0 1 0-623.304348 0Z" fill="#E9EAEB" p-id="4101"></path><path d="M400.695652 252.289855h563.942029v400.695652H400.695652z" fill="#FFFFFF" p-id="4102"></path><path d="M118.724638 371.014493h563.942029v400.695652H118.724638z" fill="#FFFFFF" p-id="4103"></path><path d="M979.478261 667.826087h-118.724638v-29.681159h89.043478V267.130435H415.536232v59.362319h-29.68116v-89.043479h593.623189z" fill="#2A5082" p-id="4104"></path><path d="M222.608696 786.550725H103.884058V356.173913h593.623188v89.043478h-29.681159v-59.362319H133.565217v371.014493h89.043479z" fill="#2A5082" p-id="4105"></path><path d="M267.130435 489.73913h549.101449v400.695653H267.130435z" fill="#FFFFFF" p-id="4106"></path><path d="M831.072464 905.275362H252.289855V474.898551h578.782609v430.376811z m-549.10145-29.681159h519.42029V504.57971H281.971014v371.014493z" fill="#2A5082" p-id="4107"></path><path d="M682.666667 608.463768m-44.521739 0a44.521739 44.521739 0 1 0 89.043478 0 44.521739 44.521739 0 1 0-89.043478 0Z" fill="#A3D4FF" p-id="4108"></path><path d="M682.666667 667.826087c-32.649275 0-59.362319-26.713043-59.362319-59.362319s26.713043-59.362319 59.362319-59.362319 59.362319 26.713043 59.362319 59.362319-26.713043 59.362319-59.362319 59.362319z m0-89.043478c-16.324638 0-29.681159 13.356522-29.68116 29.681159s13.356522 29.681159 29.68116 29.68116 29.681159-13.356522 29.681159-29.68116-13.356522-29.681159-29.681159-29.681159z" fill="#2A5082" p-id="4109"></path><path d="M623.304348 712.347826l-51.942029 51.942029L460.057971 652.985507 267.130435 845.913043v44.52174h534.260869z" fill="#A3D4FF" p-id="4110"></path><path d="M837.008696 905.275362H252.289855v-65.29855l207.768116-207.768116 111.304348 111.304347 51.942029-51.942029L837.008696 905.275362zM281.971014 875.594203h483.802899L623.304348 733.124638l-31.165218 31.165217 41.553624 41.553623-20.776812 20.776812L460.057971 673.762319l-178.086957 178.086956V875.594203z" fill="#2A5082" p-id="4111"></path></svg>