<?xml version="1.0" standalone="no"?><!DOCTYPE svg PUBLIC "-//W3C//DTD SVG 1.1//EN" "http://www.w3.org/Graphics/SVG/1.1/DTD/svg11.dtd"><svg t="1547447665630" class="icon" style="" viewBox="0 0 1024 1024" version="1.1" xmlns="http://www.w3.org/2000/svg" p-id="17752" xmlns:xlink="http://www.w3.org/1999/xlink" width="32" height="32"><defs><style type="text/css"></style></defs><path d="M576 704V448H256v320h320v-64z m128 0v192H128V320h192V256h64v64h320v320h64v64h-64zM320 128h64v64H320V128z m128 0h64v64H448V128z m128 0h64v64H576V128z m128 0h64v64h-64V128z m128 0h64v64h-64V128z m0 128h64v64h-64V256z m0 128h64v64h-64V384z m0 128h64v64h-64V512z m0 128h64v64h-64v-64z m-384 0h64v64H448v-64z m-128 0h64v64H320v-64z m0-128h64v64H320V512z" p-id="17753" fill="#ffffff"></path></svg>